<?xml version="1.0" encoding="utf-8"?>
<!-- Generator: Adobe Illustrator 24.0.0, SVG Export Plug-In . SVG Version: 6.00 Build 0)  -->
<svg version="1.1" id="Layer_1" xmlns="http://www.w3.org/2000/svg" xmlns:xlink="http://www.w3.org/1999/xlink" x="0px" y="0px"
	 viewBox="0 0 252 288" style="enable-background:new 0 0 252 288;" xml:space="preserve">
<style type="text/css">
	.st0{fill:#F094D0;}
	.st1{fill:#FCFDFF;}
</style>
<title>logo_foam</title>
<rect x="-27" y="-31" class="st0" width="306" height="350"/>
<g>
	<path class="st1" d="M358.5,315.8c-2.4-1.8-3.8,0.6-6.3-0.4s-0.8-8.1-5-8.8s-14.6,9.2-18.1,12.6c-2.8,2.7-6,5.4-8.2,3.8
		c-2.7-1.9-0.7-8.7,2-17.2c2.5-7.9,8.9-22.6,5.8-33.8c-2.4-8.7-9.9-10.4-14.9-6c-5.6,4.9-1.4,14.2,0,19.6c1.4,5.6,0.5,15.8-0.9,20.8
		c-1.5,5.6-2.6,8.1-3.7,12.7c-0.9,3.9-1.3,7.7-2.6,9.1c-1.5,1.7-3.7,2.2-4.2-0.7c-0.3-1.4,0.1-4.8-1.4-9.8c-1.5-5-1.8-8.1-1.5-11.8
		s2.1-11.9,0.9-16c-1.5-5.3-6.2-9.1-12.1-9c-7.2,0.1-12.8,6.8-14.8,13s-1.8,10.6-4.1,15.1s-6.8,10-8.5,16s-1.4,10.8-2.4,13.6
		c-0.8,2.2-3.7,4.5-6.2,3s-0.9-8.5-0.3-12.5c1.1-7.5-0.1-12.9-3.6-16.9c-3.4-3.8-11.4-5.2-18.8,2c-7.2,7.1-6.4,16.6-8.4,21.4
		s-9.2,14.1-10.5,24.4c-2,16,5.3,21.5,5.6,25.5c0.2,3-2,4.6-3.8,4.8c-2.7,0.2-7.2-3.1-10.5-1.1s-5.5,7.6-9.8,9.1
		c-3.3,1.2-12.5-1-14-10.5c-2.5-15.9,6.2-31.6,11.4-35.8c5.5-4.4,10.5,0,14.6-2.5c5.2-3.1,7-13.1,8.5-15.5c1.9-3.1,4-2,5.6-4.2
		c2.2-3-0.8-7-4-4.9c-2.4,1.6-1.5,4.3-3.9,5.2c-1.8,0.7-4.1-1.6-7.5,0.5c-3.5,2.1-5.8,6.2-8.8,8s-12.4,0.8-15.8,6.8
		c-2.8,5-2.4,10.9-3.6,15.6c-1.8,6.8-13.1,18.5-9.8,32.4c2.9,11.9,14.8,11.6,18.9,13.1c5.9,2.1,8.5,5.5,14.4,4.6
		c11.1-1.8,11.2-15,15.8-16.5c3.5-1.1,5.5,1.7,8.8,1.6c3.9-0.1,6.6-4.1,8.9-5.8c6-4.2,13.8-6.6,18.2-13c4.7-6.8,4.1-20.7,3.7-25.2
		c-0.4-4.4,2.4-5.8,4.4-5.6c2.4,0.2,2.7,2,3.8,4.2c1.1,2.2,2.5,3.2,2.8,6.2c0.2,2.4-0.3,9.9,4.9,10.9c5.8,1.2,8.8-4.1,11.4-6.2
		c3-2.4,10.2-3.1,15.1-9.1c3.8-4.8,4.3-9.9,5.5-13.6c1.2-3.7,4-5.3,6.7-3.2c1.7,1.3,1.4,6.6,6.1,6.8c7.2,0.2,11.6-7.7,15.6-10.4
		s9.2-2.2,12.5-4.2c5.1-3,6.7-7.6,9.2-7.8c2.1-0.1,2.7,2.1,5.2,1.7C360.4,321.2,360.2,317,358.5,315.8z M244.6,364.2
		c-1.9,6.6-6,14.4-10.2,14.8c-3.7,0.4-5.6-3.4-7.2-4.4c-1.7-1-3.1-1.1-4.2-2.8c-2.8-4-0.8-14.9,1.5-21.9
		c3.6-10.8,8.9-20.8,12.5-23.5c1.8-1.4,4.9-1.3,5.4,1.3c1,4.8-1.8,11.5-1,14c0.8,2.2,2.6,2.4,3.8,4.8
		C246.9,350,246.3,358.3,244.6,364.2z M292.2,338.7c-2.3,3.1-5.4,3.1-6.9,4.8c-1.7,1.9-2.4,4.8-5.1,8.6c-1.5,2.2-6.1,3-7.9-1.6
		c-2.4-6.1-3-16.4,0.1-27c2.6-8.9,9.2-24.9,14.9-24c4.5,0.7,6.2,13,6.6,21.3C294.1,326.7,294.4,335.7,292.2,338.7z"/>
</g>
<g>
	<path class="st1" d="M106.5,315.8c-2.4-1.8-3.8,0.6-6.3-0.4s-0.8-8.1-5-8.8s-14.6,9.2-18.1,12.6c-2.8,2.7-6,5.4-8.2,3.8
		c-2.7-1.9-0.7-8.7,2-17.2c2.5-7.9,8.9-22.6,5.8-33.8c-2.4-8.7-9.9-10.4-14.9-6c-5.6,4.9-1.4,14.2,0,19.6c1.4,5.6,0.5,15.8-0.9,20.8
		c-1.5,5.6-2.6,8.1-3.7,12.7c-0.9,3.9-1.3,7.7-2.6,9.1c-1.5,1.7-3.7,2.2-4.2-0.7c-0.3-1.4,0.1-4.8-1.4-9.8c-1.5-5-1.8-8.1-1.5-11.8
		s2.1-11.9,0.9-16c-1.5-5.3-6.2-9.1-12.1-9c-7.3,0.1-12.8,6.8-14.8,13s-1.8,10.6-4.1,15.1s-6.8,10-8.5,16s-1.4,10.8-2.4,13.6
		c-0.8,2.2-3.7,4.5-6.2,3s-0.9-8.5-0.3-12.5c1.1-7.5-0.1-12.9-3.6-16.9c-3.4-3.8-11.4-5.2-18.8,2c-7.2,7.1-6.4,16.6-8.4,21.4
		s-9.2,14.1-10.5,24.4c-2,16,5.3,21.5,5.6,25.5c0.2,3-2,4.6-3.8,4.8c-2.7,0.2-7.2-3.1-10.5-1.1s-5.5,7.6-9.8,9.1
		c-3.3,1.2-12.5-1-14-10.5c-2.5-15.9,6.2-31.6,11.4-35.8c5.5-4.4,10.5,0,14.6-2.5c5.2-3.1,7-13.1,8.5-15.5c1.9-3.1,4-2,5.6-4.2
		c2.2-3-0.8-7-4-4.9c-2.4,1.6-1.5,4.3-3.9,5.2c-1.8,0.7-4.1-1.6-7.5,0.5c-3.5,2.1-5.8,6.2-8.8,8s-12.4,0.8-15.8,6.8
		c-2.8,5-2.4,10.9-3.6,15.6c-1.8,6.8-13.1,18.5-9.8,32.4c2.9,11.9,14.8,11.6,18.9,13.1c5.9,2.1,8.5,5.5,14.4,4.6
		c11.1-1.8,11.2-15,15.8-16.5c3.5-1.1,5.5,1.7,8.7,1.6c3.9-0.1,6.6-4.1,8.9-5.8c6-4.2,13.8-6.6,18.2-13c4.7-6.8,4.1-20.7,3.7-25.2
		c-0.4-4.4,2.4-5.8,4.4-5.6c2.4,0.2,2.7,2,3.8,4.2c1.1,2.2,2.5,3.2,2.8,6.2c0.2,2.4-0.3,9.9,4.9,10.9c5.8,1.2,8.8-4.1,11.4-6.2
		c3-2.4,10.2-3.1,15.1-9.1c3.8-4.8,4.3-9.9,5.5-13.6c1.2-3.7,4-5.3,6.7-3.2c1.7,1.3,1.4,6.6,6.1,6.8c7.2,0.2,11.6-7.7,15.6-10.4
		s9.2-2.2,12.5-4.2c5.1-3,6.7-7.6,9.2-7.8c2.1-0.1,2.7,2.1,5.2,1.7C108.4,321.2,108.2,317,106.5,315.8z M-7.4,364.2
		c-1.9,6.6-6,14.4-10.2,14.8c-3.7,0.4-5.6-3.4-7.2-4.4c-1.7-1-3.1-1.1-4.2-2.8c-2.8-4-0.8-14.9,1.5-21.9
		c3.6-10.8,8.9-20.8,12.5-23.5c1.8-1.4,4.9-1.3,5.4,1.3c1,4.8-1.8,11.5-1,14c0.8,2.2,2.6,2.4,3.8,4.8C-5.1,350-5.7,358.3-7.4,364.2z
		 M40.2,338.7c-2.3,3.1-5.4,3.1-6.9,4.8c-1.7,1.9-2.4,4.8-5.1,8.6c-1.5,2.2-6.1,3-7.9-1.6c-2.4-6.1-3-16.4,0.1-27
		c2.6-8.9,9.2-24.9,14.9-24c4.5,0.7,6.2,13,6.6,21.3C42.1,326.7,42.4,335.7,40.2,338.7z"/>
</g>
<g>
	<path class="st1" d="M317.9,193.5c5.8-2.3,12.4,2.2,20.5-4.5c11-9.1,10.4-26,11.9-38.8c2-16.9,7.2-19.3,11.5-35.4
		c1.2-4.7,1.5-9.8,4-11.3c1.4-0.9,3.5-1.5,4.4-3.5c0.7-1.5-0.2-4.6-2.9-4.5c-3.4,0.1-2.9,3.3-5.2,4.8s-8.1-0.6-13,3.9
		c-6.2,5.6-5,14.9-5.9,21.9c-0.9,6.6-2.7,16.1-10.9,16.1c-4.9,0-2.3-6.4,0.6-14.6c2.3-6.8,3.8-14.5-4.7-11.5
		c-4,1.4-10.4,5.2-11,18.1c-0.4,7.5,1.1,16.7,6.1,19.1c5.7,2.8,11.2-2.6,13.8-2c2.2,0.5,4.7,6.6,2.9,12.6c-2.8,9.5-9.5,9.9-14.5,13
		c-4.8,2.9-4.6,7.8-6.2,10.6c-1.6,2.7-4.5,3.1-7.1,2.3c-2.2-0.7-4.7-4.1-11.2,1.8c-5.2,4.6-9.1,7.9-11.2,6.2
		c-2.8-2.2,6.6-22.2,9.8-28.9s16.4-32.8,8.6-37.1c-6.2-3.5-12.3,5-19.6,9.6c-5.4,3.4-12.7,4.2-16.4,8.8c-3.4,4.1-2.5,7.6-5.2,9.2
		c-2.3,1.4-5.2-2.5-9.6-1.5c-4.8,1.1-6.8,5.1-12.5,8.6s-11.5,6-16,8.5s-5.1,6.5-4.9,11.5s2.8,6.5,4.9,6.5c4,0,6.8-4.2,9.6-7
		s6.5-5.6,8.2-4.7c3.8,2-13.5,38.6-17.6,50.5c-2.1,6.1-2.6,9.8-5.5,12c-2.1,1.6-3.9,1-5.4-0.5s-2.6-2.8-4.6-2.1
		c-2.5,0.8-5,5.8-7.1,4.8c-5-2.6,1.7-38.4,4.8-41.7c2.1-2.2,4.6-0.6,6.1-4.9c1.4-4.2,1.7-13.9-1.2-15.8c-3.2-2-8.3,2.8-12.1,6.6
		c-3.8,3.8-9.2,1.5-11.9,4.8s-2.5,9.4-5.1,10.9c-3.1,1.8-4.5-2.1-8.6-2c-4.4,0.1-9.7,7.3-13,9.8c-6.5,4.9-14.9,3.6-18.6,8.4
		c-4,5.1,0.1,11.8,1.2,18.6c1.2,7.6-2.5,18-4.4,24.4c-2,6.8-4.9,12.6-4.5,19.4c0.2,5.2,2.7,9.8-0.1,11.5c-2.7,1.6-4.3,3.1-4.4,4.9
		c-0.2,3.8,3.5,4.3,5.2,3.2c2.2-1.4,1.6-4.5,4-5.8c1.9-1.1,6.6,2.4,10.8-3.7c3.6-5.3,1.6-13.9-0.3-20.3c-2.2-7.3-0.5-14.9,2.6-19.2
		c4.8-6.6,13.1-0.2,15.9-13s-3.6-8.3-5.2-6.8c-1.7,1.6-5.2,6.4-7.7,5.2c-3-1.5,1.3-13.2,6.4-16.4c4.5-2.8,5.6-1.2,7.8-0.2
		c2.8,1.2,5.1,0.3,6.2-2.4c1.6-3.7,2.7-8.9,5.9-10.2c3.1-1.2,2.5,3.3,4.7,3.8c2.8,0.7,3.4-2,5.1-1.8c4.2,0.5-0.6,37.4-3,40.8
		c-3.5,4.9-7.6,0.2-9.3,7.7s-1,12.5,2.2,13.8c4.5,1.7,11.2-5.6,15-8.6c3.4-2.7,6.9-0.8,10.9-4.6s5.1-9.1,8.6-11.9
		c3.8-3.1,5.1,0.4,8.4,0.5c5.5,0.2,8-4.2,14.1-8.5c5-3.5,13-5.2,15.1-6.6c6.1-4.1,6.9-11.5,11.5-12.7c3.5-0.9,6.3,4.2,11.5-0.8
		c10.7-10.3,17.9-9.8,24.1-14C311.9,203.5,310.8,196.3,317.9,193.5z M274.6,205c-1.6,4.7-3.2,13.2-6.9,13.5
		c-2.2,0.1-3.2-3.2-6.3-3.9c-2.5-0.6-5.3,2-7.3,3.8c-2.4,2.2-8.4,7.8-10.7,6.2c-1.7-1.2,0.7-8.8,2.7-14.1
		c5.3-14.1,10.4-20.8,15.3-33.1c2.3-5.7,3.1-12,6.2-13.5c2.4-1.1,4.1,2.2,6.5,2.5c2.9,0.4,5-2.8,7.8-5.6c2.5-2.4,8.3-7.6,10.4-6.2
		c2.5,1.7-4.6,19.3-6.9,25.2C281.6,189.4,276.8,198.6,274.6,205z"/>
</g>
<g>
	<path class="st1" d="M65.9,193.5c5.8-2.3,12.4,2.2,20.5-4.5c11-9.1,10.4-26,11.9-38.8c2-16.9,7.2-19.3,11.5-35.4
		c1.2-4.7,1.5-9.8,4-11.3c1.4-0.9,3.5-1.5,4.4-3.5c0.7-1.5-0.2-4.6-2.9-4.5c-3.4,0.1-2.9,3.3-5.2,4.8s-8.1-0.6-13,3.9
		c-6.2,5.6-5,14.9-5.9,21.9c-0.9,6.6-2.7,16.1-10.9,16.1c-4.9,0-2.3-6.4,0.6-14.6C83,120.7,84.5,113,76,116c-4,1.4-10.4,5.2-11,18.1
		c-0.4,7.5,1.1,16.7,6.1,19.1c5.7,2.8,11.2-2.6,13.8-2c2.2,0.5,4.7,6.6,2.9,12.6c-2.8,9.5-9.5,9.9-14.5,13
		c-4.8,2.9-4.6,7.8-6.2,10.6c-1.6,2.7-4.5,3.1-7.1,2.3c-2.2-0.7-4.7-4.1-11.2,1.8c-5.2,4.6-9.1,7.9-11.2,6.2
		c-2.8-2.2,6.6-22.2,9.8-28.9s16.4-32.8,8.6-37.1c-6.2-3.5-12.3,5-19.6,9.6c-5.4,3.4-12.7,4.2-16.4,8.8c-3.4,4.1-2.5,7.6-5.2,9.2
		c-2.3,1.4-5.2-2.5-9.6-1.5c-4.8,1.1-6.8,5.1-12.5,8.6s-11.5,6-16,8.5s-5.1,6.5-4.9,11.5s2.8,6.5,4.9,6.5c4,0,6.8-4.2,9.6-7
		s6.5-5.6,8.2-4.7c3.7,2-13.5,38.6-17.6,50.5c-2.1,6.1-2.6,9.8-5.5,12c-2.1,1.6-3.9,1-5.4-0.5s-2.6-2.8-4.6-2.1
		c-2.5,0.8-5,5.8-7.1,4.8c-5-2.6,1.7-38.4,4.8-41.7c2.1-2.2,4.6-0.6,6.1-4.9c1.4-4.2,1.7-13.9-1.2-15.8c-3.2-2-8.3,2.8-12.1,6.6
		c-3.8,3.8-9.2,1.5-11.9,4.8s-2.5,9.4-5.1,10.9c-3.1,1.8-4.5-2.1-8.6-2c-4.4,0.1-9.7,7.3-13,9.8c-6.5,4.9-14.9,3.6-18.6,8.4
		c-4,5.1,0.1,11.8,1.2,18.6c1.2,7.6-2.5,18-4.4,24.4c-2,6.8-4.9,12.6-4.5,19.4c0.2,5.2,2.7,9.8-0.1,11.5c-2.7,1.6-4.3,3.1-4.4,4.9
		c-0.2,3.8,3.5,4.3,5.2,3.2c2.2-1.4,1.6-4.5,4-5.8c1.9-1.1,6.6,2.4,10.8-3.7c3.6-5.3,1.6-13.9-0.3-20.3c-2.2-7.3-0.5-14.9,2.6-19.2
		c4.8-6.6,13.1-0.2,15.9-13s-3.6-8.3-5.2-6.8c-1.7,1.6-5.2,6.4-7.7,5.2c-3-1.5,1.3-13.2,6.4-16.4c4.5-2.8,5.6-1.2,7.8-0.2
		c2.8,1.2,5.1,0.3,6.2-2.4c1.6-3.7,2.7-8.9,5.9-10.2c3.1-1.2,2.5,3.3,4.7,3.8c2.8,0.7,3.4-2,5.1-1.8c4.2,0.5-0.6,37.4-3,40.8
		c-3.5,4.9-7.6,0.2-9.3,7.7s-1,12.5,2.2,13.8c4.5,1.7,11.2-5.6,15-8.6c3.4-2.7,6.9-0.8,10.9-4.6s5.1-9.1,8.6-11.9
		c3.8-3.1,5.1,0.4,8.4,0.5c5.5,0.2,8-4.2,14.1-8.5c5-3.5,13-5.2,15.1-6.6c6.1-4.1,6.9-11.5,11.5-12.7c3.5-0.9,6.3,4.2,11.5-0.8
		c10.7-10.3,17.9-9.8,24.1-14C59.9,203.5,58.8,196.3,65.9,193.5z M22.6,205c-1.6,4.7-3.2,13.2-6.9,13.5c-2.2,0.1-3.2-3.2-6.3-3.9
		c-2.5-0.6-5.3,2-7.3,3.8c-2.4,2.2-8.4,7.8-10.7,6.2c-1.7-1.2,0.7-8.8,2.7-14.1c5.3-14.1,10.4-20.8,15.2-33.1
		c2.3-5.7,3.1-12,6.2-13.5c2.4-1.1,4.1,2.2,6.5,2.5c2.9,0.4,5-2.8,7.8-5.6c2.5-2.4,8.3-7.6,10.4-6.2c2.5,1.7-4.6,19.3-6.9,25.2
		C29.6,189.4,24.8,198.6,22.6,205z"/>
	<path class="st1" d="M358.5,27.8c-2.4-1.8-3.8,0.6-6.3-0.4s-0.8-8.1-5-8.8s-14.6,9.2-18.1,12.6c-2.8,2.7-6,5.4-8.2,3.8
		c-2.7-1.9-0.7-8.7,2-17.2c2.5-7.9,8.9-22.6,5.8-33.8c-2.4-8.7-9.9-10.4-14.9-6c-5.6,4.9-1.4,14.2,0,19.6c1.4,5.6,0.5,15.8-0.9,20.8
		c-1.5,5.6-2.6,8.1-3.7,12.7c-0.9,3.9-1.3,7.7-2.6,9.1c-1.5,1.7-3.7,2.2-4.2-0.7c-0.3-1.4,0.1-4.8-1.4-9.8c-1.5-5-1.8-8.1-1.5-11.8
		s2.1-11.9,0.9-16c-1.5-5.3-6.2-9.1-12.1-9c-7.2,0.1-12.8,6.8-14.8,13s-1.8,10.6-4.1,15.1s-6.8,10-8.5,16s-1.4,10.8-2.4,13.6
		c-0.8,2.2-3.7,4.5-6.2,3s-0.9-8.5-0.3-12.5c1.1-7.5-0.1-12.9-3.6-16.9c-3.4-3.8-11.4-5.2-18.8,2c-7.2,7.1-6.4,16.6-8.4,21.4
		s-9.2,14.1-10.5,24.4c-2,16,5.3,21.5,5.6,25.5c0.2,3-2,4.6-3.8,4.8c-2.7,0.2-7.2-3.1-10.5-1.1s-5.5,7.6-9.8,9.1
		c-3.3,1.2-12.5-1-14-10.5c-2.5-15.9,6.2-31.6,11.4-35.7c5.5-4.4,10.5,0,14.6-2.5c5.2-3.1,7-13.1,8.5-15.5c1.9-3.1,4-2,5.6-4.2
		c2.2-3-0.8-7-4-4.9c-2.4,1.6-1.5,4.3-3.9,5.2c-1.8,0.7-4.1-1.6-7.5,0.5c-3.5,2.1-5.8,6.2-8.8,8s-12.4,0.8-15.8,6.8
		c-2.8,5-2.4,10.9-3.6,15.6c-1.8,6.8-13.1,18.5-9.8,32.4c2.9,11.9,14.8,11.6,18.9,13.1c5.9,2.1,8.5,5.5,14.4,4.6
		c11.1-1.8,11.2-15,15.8-16.5c3.5-1.1,5.5,1.7,8.8,1.6c3.9-0.1,6.6-4.1,8.9-5.8c6-4.2,13.8-6.6,18.2-13c4.7-6.8,4.1-20.7,3.7-25.2
		c-0.4-4.4,2.4-5.8,4.4-5.6c2.4,0.2,2.7,2,3.8,4.2c1.1,2.2,2.5,3.2,2.8,6.2c0.2,2.4-0.3,9.9,4.9,10.9c5.8,1.2,8.8-4.1,11.4-6.2
		c3-2.4,10.2-3.1,15.1-9.1c3.8-4.7,4.3-9.9,5.5-13.6c1.2-3.7,4-5.3,6.7-3.2c1.7,1.3,1.4,6.6,6.1,6.8c7.2,0.2,11.6-7.7,15.6-10.4
		s9.2-2.2,12.5-4.2c5.1-3,6.7-7.6,9.2-7.8c2.1-0.1,2.7,2.1,5.2,1.7C360.4,33.2,360.2,29,358.5,27.8z M244.6,76.2
		c-1.9,6.6-6,14.4-10.2,14.8c-3.7,0.4-5.6-3.4-7.2-4.4c-1.7-1-3.1-1.1-4.2-2.8c-2.8-4-0.8-14.9,1.5-21.9
		c3.6-10.8,8.9-20.8,12.5-23.5c1.8-1.4,4.9-1.3,5.4,1.3c1,4.8-1.8,11.5-1,14c0.8,2.2,2.6,2.4,3.8,4.8
		C246.9,62,246.3,70.3,244.6,76.2z M292.2,50.7c-2.3,3.1-5.4,3.1-6.9,4.8c-1.7,1.9-2.4,4.8-5.1,8.6c-1.5,2.2-6.1,3-7.9-1.6
		c-2.4-6.1-3-16.4,0.1-27c2.6-8.9,9.2-24.9,14.9-24c4.5,0.7,6.2,13,6.6,21.3C294.1,38.7,294.4,47.7,292.2,50.7z"/>
	<path class="st1" d="M157.6,135.5c3.6,0,6.9-3.2,7.1-7c0.2-3.6-2.3-7.4-5.9-7.4c-3.6,0-6.2,3.2-6.6,6.7
		C151.6,132,154,135.5,157.6,135.5z"/>
	<path class="st1" d="M120.6,134.9c0.1,2.9,2.3,5.9,5.5,6.6c4,0.8,7.3-1.3,8.7-3.4c2.3-3.5,0.8-7.2,2.4-9.2c1.7-2.1,3.4-1.6,5-3.2
		c2-2.1,1.3-5.4-0.5-6.6c-1.8-1.3-4.6-0.7-5.9,1.5c-1.2,2,0.2,4.1-1.7,5.3c-2,1.3-5.6-0.7-9,1C122.2,128.5,120.5,131.5,120.6,134.9z
		"/>
	<path class="st1" d="M109.3,14.1c2.8,0,5.2-2.5,5.4-5.3c0.1-2.7-1.7-5.6-4.5-5.6c-2.8,0-4.7,2.4-5.1,5.1
		C104.7,11.4,106.5,14.1,109.3,14.1z"/>
</g>
<g>
	<path class="st1" d="M106.5,27.8c-2.4-1.8-3.8,0.6-6.3-0.4s-0.8-8.1-5-8.8s-14.6,9.2-18.1,12.6c-2.8,2.7-6,5.4-8.2,3.8
		c-2.7-1.9-0.7-8.7,2-17.2c2.5-7.9,8.9-22.6,5.8-33.8c-2.4-8.7-9.9-10.4-14.9-6c-5.6,4.9-1.4,14.2,0,19.6c1.4,5.6,0.5,15.8-0.9,20.8
		c-1.5,5.6-2.6,8.1-3.7,12.7c-0.9,3.9-1.3,7.7-2.6,9.1c-1.5,1.7-3.7,2.2-4.2-0.7c-0.3-1.4,0.1-4.8-1.4-9.8c-1.5-5-1.8-8.1-1.5-11.8
		s2.1-11.9,0.9-16c-1.5-5.3-6.2-9.1-12.1-9C29-7.1,23.4-0.4,21.4,5.9s-1.8,10.6-4.1,15.1s-6.8,10-8.5,16S7.4,47.8,6.4,50.5
		c-0.8,2.2-3.7,4.5-6.2,3S-0.6,45.1,0,41.1c1.1-7.5-0.1-12.9-3.6-16.9c-3.4-3.8-11.4-5.2-18.8,2c-7.2,7.1-6.4,16.6-8.4,21.4
		S-40,61.7-41.3,71.9c-2,16,5.3,21.5,5.6,25.5c0.2,3-2,4.6-3.8,4.8c-2.7,0.2-7.2-3.1-10.5-1.1s-5.5,7.6-9.8,9.1
		c-3.3,1.2-12.5-1-14-10.5c-2.5-15.9,6.2-31.6,11.4-35.7c5.5-4.4,10.5,0,14.6-2.5c5.2-3.1,7-13.1,8.5-15.5c1.9-3.1,4-2,5.6-4.2
		c2.2-3-0.8-7-4-4.9c-2.4,1.6-1.5,4.3-3.9,5.2c-1.8,0.7-4.1-1.6-7.5,0.5c-3.5,2.1-5.8,6.2-8.8,8s-12.4,0.8-15.8,6.8
		c-2.8,5-2.4,10.9-3.6,15.6c-1.8,6.8-13.1,18.5-9.8,32.4c2.9,11.9,14.8,11.6,18.9,13.1c5.9,2.1,8.5,5.5,14.4,4.6
		c11.1-1.8,11.2-15,15.8-16.5c3.5-1.1,5.5,1.7,8.7,1.6c3.9-0.1,6.6-4.1,8.9-5.8c6-4.2,13.8-6.6,18.2-13c4.7-6.8,4.1-20.7,3.7-25.2
		c-0.4-4.4,2.4-5.8,4.4-5.6c2.4,0.2,2.7,2,3.8,4.2c1.1,2.2,2.5,3.2,2.8,6.2c0.2,2.4-0.3,9.9,4.9,10.9c5.8,1.2,8.8-4.1,11.4-6.2
		c3-2.4,10.2-3.1,15.1-9.1c3.8-4.7,4.3-9.9,5.5-13.6c1.2-3.7,4-5.3,6.7-3.2c1.7,1.3,1.4,6.6,6.1,6.8c7.2,0.2,11.6-7.7,15.6-10.4
		s9.2-2.2,12.5-4.2c5.1-3,6.7-7.6,9.2-7.8c2.1-0.1,2.7,2.1,5.2,1.7C108.4,33.2,108.2,29,106.5,27.8z M-7.4,76.2
		c-1.9,6.6-6,14.4-10.2,14.8c-3.7,0.4-5.6-3.4-7.2-4.4c-1.7-1-3.1-1.1-4.2-2.8c-2.8-4-0.8-14.9,1.5-21.9
		c3.6-10.8,8.9-20.8,12.5-23.5c1.8-1.4,4.9-1.3,5.4,1.3c1,4.8-1.8,11.5-1,14c0.8,2.2,2.6,2.4,3.8,4.8C-5.1,62-5.7,70.3-7.4,76.2z
		 M40.2,50.7c-2.3,3.1-5.4,3.1-6.9,4.8c-1.7,1.9-2.4,4.8-5.1,8.6c-1.5,2.2-6.1,3-7.9-1.6c-2.4-6.1-3-16.4,0.1-27
		c2.6-8.9,9.2-24.9,14.9-24c4.5,0.7,6.2,13,6.6,21.3C42.1,38.7,42.4,47.7,40.2,50.7z"/>
</g>
<g>
	<path class="st1" d="M317.9-94.5c5.8-2.3,12.4,2.2,20.5-4.5c11-9.1,10.4-26,11.9-38.8c2-16.9,7.2-19.3,11.5-35.4
		c1.2-4.7,1.5-9.8,4-11.3c1.4-0.9,3.5-1.5,4.4-3.5c0.7-1.5-0.2-4.6-2.9-4.5c-3.4,0.1-2.9,3.3-5.2,4.8s-8.1-0.6-13,3.9
		c-6.2,5.6-5,14.9-5.9,21.9c-0.9,6.6-2.7,16.1-10.9,16.1c-4.9,0-2.3-6.4,0.6-14.6c2.3-6.8,3.8-14.5-4.7-11.5
		c-4,1.4-10.4,5.2-11,18.1c-0.4,7.5,1.1,16.7,6.1,19.1c5.7,2.8,11.2-2.6,13.8-2c2.2,0.5,4.7,6.6,2.9,12.6c-2.8,9.5-9.5,9.9-14.5,13
		c-4.8,2.9-4.6,7.8-6.2,10.6c-1.6,2.7-4.5,3.1-7.1,2.3c-2.2-0.7-4.7-4.1-11.2,1.8c-5.2,4.6-9.1,7.9-11.2,6.2
		c-2.8-2.2,6.6-22.2,9.8-28.9s16.4-32.8,8.6-37.1c-6.2-3.5-12.3,5-19.6,9.6c-5.4,3.4-12.7,4.2-16.4,8.8c-3.4,4.1-2.5,7.6-5.2,9.2
		c-2.3,1.4-5.2-2.5-9.6-1.5c-4.8,1.1-6.8,5.1-12.5,8.6s-11.5,6-16,8.5s-5.1,6.5-4.9,11.5s2.8,6.5,4.9,6.5c4,0,6.8-4.2,9.6-7
		s6.5-5.6,8.2-4.7c3.8,2-13.5,38.6-17.6,50.5c-2.1,6.1-2.6,9.8-5.5,12c-2.1,1.6-3.9,1-5.4-0.5s-2.6-2.8-4.6-2.1
		c-2.5,0.8-5,5.8-7.1,4.8c-5-2.6,1.7-38.4,4.8-41.7c2.1-2.2,4.6-0.6,6.1-4.9c1.4-4.2,1.7-13.9-1.2-15.8c-3.2-2-8.3,2.8-12.1,6.6
		c-3.8,3.8-9.2,1.5-11.9,4.8s-2.5,9.4-5.1,10.9c-3.1,1.8-4.5-2.1-8.6-2c-4.4,0.1-9.7,7.3-13,9.8c-6.5,4.9-14.9,3.6-18.6,8.4
		c-4,5.1,0.1,11.8,1.2,18.6c1.2,7.6-2.5,18-4.4,24.4c-2,6.8-4.9,12.6-4.5,19.4c0.2,5.2,2.7,9.8-0.1,11.5c-2.7,1.6-4.3,3.1-4.4,4.9
		c-0.2,3.7,3.5,4.3,5.2,3.2c2.2-1.4,1.6-4.5,4-5.8c1.9-1.1,6.6,2.4,10.8-3.7c3.6-5.3,1.6-13.9-0.3-20.3c-2.2-7.3-0.5-14.9,2.6-19.2
		c4.8-6.6,13.1-0.2,15.9-13s-3.6-8.3-5.2-6.8c-1.7,1.6-5.2,6.4-7.7,5.2c-3-1.5,1.3-13.2,6.4-16.4c4.5-2.8,5.6-1.2,7.8-0.2
		c2.8,1.3,5.1,0.3,6.2-2.4c1.6-3.7,2.7-8.9,5.9-10.2c3.1-1.2,2.5,3.3,4.7,3.8c2.8,0.7,3.4-2,5.1-1.8c4.2,0.5-0.6,37.4-3,40.8
		c-3.5,4.9-7.6,0.2-9.3,7.7s-1,12.5,2.2,13.8c4.5,1.7,11.2-5.6,15-8.6c3.4-2.7,6.9-0.8,10.9-4.6s5.1-9.1,8.6-11.9
		c3.8-3.1,5.1,0.4,8.4,0.5c5.5,0.2,8-4.2,14.1-8.5c5-3.5,13-5.2,15.1-6.6c6.1-4.1,6.9-11.5,11.5-12.7c3.5-0.9,6.3,4.2,11.5-0.8
		c10.7-10.3,17.9-9.8,24.1-14C311.9-84.5,310.8-91.7,317.9-94.5z M274.6-83c-1.6,4.7-3.2,13.2-6.9,13.5c-2.2,0.1-3.2-3.2-6.3-3.9
		c-2.5-0.6-5.3,2-7.3,3.8c-2.4,2.2-8.4,7.8-10.7,6.3c-1.7-1.2,0.7-8.8,2.7-14.1c5.3-14.1,10.4-20.8,15.3-33.1
		c2.3-5.7,3.1-12,6.2-13.5c2.4-1.1,4.1,2.2,6.5,2.5c2.9,0.4,5-2.8,7.8-5.6c2.5-2.4,8.3-7.6,10.4-6.2c2.5,1.7-4.6,19.3-6.9,25.2
		C281.6-98.6,276.8-89.4,274.6-83z"/>
</g>
<g>
	<path class="st1" d="M65.9-94.5c5.8-2.3,12.4,2.2,20.5-4.5c11-9.1,10.4-26,11.9-38.8c2-16.9,7.2-19.3,11.5-35.4
		c1.2-4.7,1.5-9.8,4-11.3c1.4-0.9,3.5-1.5,4.4-3.5c0.7-1.5-0.2-4.6-2.9-4.5c-3.4,0.1-2.9,3.3-5.2,4.8s-8.1-0.6-13,3.9
		c-6.2,5.6-5,14.9-5.9,21.9c-0.9,6.6-2.7,16.1-10.9,16.1c-4.9,0-2.3-6.4,0.6-14.6C83-167.3,84.5-175,76-172c-4,1.4-10.4,5.2-11,18.1
		c-0.4,7.5,1.1,16.7,6.1,19.1c5.7,2.8,11.2-2.6,13.8-2c2.2,0.5,4.7,6.6,2.9,12.6c-2.8,9.5-9.5,9.9-14.5,13
		c-4.8,2.9-4.6,7.8-6.2,10.6c-1.6,2.7-4.5,3.1-7.1,2.3c-2.2-0.7-4.7-4.1-11.2,1.8c-5.2,4.6-9.1,7.9-11.2,6.2
		c-2.8-2.2,6.6-22.2,9.8-28.9s16.4-32.8,8.6-37.1c-6.2-3.5-12.3,5-19.6,9.6c-5.4,3.4-12.7,4.2-16.4,8.8c-3.4,4.1-2.5,7.6-5.2,9.2
		c-2.3,1.4-5.2-2.5-9.6-1.5c-4.8,1.1-6.8,5.1-12.5,8.6s-11.5,6-16,8.5s-5.1,6.5-4.9,11.5s2.8,6.5,4.9,6.5c4,0,6.8-4.2,9.6-7
		s6.5-5.6,8.2-4.7c3.7,2-13.5,38.6-17.6,50.5c-2.1,6.1-2.6,9.8-5.5,12c-2.1,1.6-3.9,1-5.4-0.5s-2.6-2.8-4.6-2.1
		c-2.5,0.8-5,5.8-7.1,4.8c-5-2.6,1.7-38.4,4.8-41.7c2.1-2.2,4.6-0.6,6.1-4.9c1.4-4.2,1.7-13.9-1.2-15.8c-3.2-2-8.3,2.8-12.1,6.6
		c-3.8,3.8-9.2,1.5-11.9,4.8s-2.5,9.4-5.1,10.9c-3.1,1.8-4.5-2.1-8.6-2c-4.4,0.1-9.7,7.3-13,9.8c-6.5,4.9-14.9,3.6-18.6,8.4
		c-4,5.1,0.1,11.8,1.2,18.6c1.2,7.6-2.5,18-4.4,24.4c-2,6.8-4.9,12.6-4.5,19.4c0.2,5.2,2.7,9.8-0.1,11.5c-2.7,1.6-4.3,3.1-4.4,4.9
		c-0.2,3.7,3.5,4.3,5.2,3.2c2.2-1.4,1.6-4.5,4-5.8c1.9-1.1,6.6,2.4,10.8-3.7C-94.1,1.1-96.1-7.5-98-14c-2.2-7.3-0.5-14.9,2.6-19.2
		c4.8-6.6,13.1-0.2,15.9-13s-3.6-8.3-5.2-6.8c-1.7,1.6-5.2,6.4-7.7,5.2c-3-1.5,1.3-13.2,6.4-16.4c4.5-2.8,5.6-1.2,7.8-0.2
		c2.8,1.3,5.1,0.3,6.2-2.4c1.6-3.7,2.7-8.9,5.9-10.2c3.1-1.2,2.5,3.3,4.7,3.8c2.8,0.7,3.4-2,5.1-1.8c4.2,0.5-0.6,37.4-3,40.8
		c-3.5,4.9-7.6,0.2-9.3,7.7s-1,12.5,2.2,13.8c4.5,1.7,11.2-5.6,15-8.6c3.4-2.7,6.9-0.8,10.9-4.6s5.1-9.1,8.6-11.9
		c3.8-3.1,5.1,0.4,8.4,0.5c5.5,0.2,8-4.2,14.1-8.5c5-3.5,13-5.2,15.1-6.6c6.1-4.1,6.9-11.5,11.5-12.7c3.5-0.9,6.3,4.2,11.5-0.8
		c10.7-10.3,17.9-9.8,24.1-14C59.9-84.5,58.8-91.7,65.9-94.5z M22.6-83c-1.6,4.7-3.2,13.2-6.9,13.5c-2.2,0.1-3.2-3.2-6.3-3.9
		C6.9-74,4-71.5,2-69.6c-2.4,2.2-8.4,7.8-10.7,6.3C-10.4-64.6-8-72.1-6-77.4c5.3-14.1,10.4-20.8,15.2-33.1c2.3-5.7,3.1-12,6.2-13.5
		c2.4-1.1,4.1,2.2,6.5,2.5c2.9,0.4,5-2.8,7.8-5.6c2.5-2.4,8.3-7.6,10.4-6.2c2.5,1.7-4.6,19.3-6.9,25.2C29.6-98.6,24.8-89.4,22.6-83z
		"/>
</g>
</svg>
