<?xml version="1.0" encoding="utf-8"?>
<!-- Generator: Adobe Illustrator 24.0.0, SVG Export Plug-In . SVG Version: 6.00 Build 0)  -->
<svg version="1.1" id="Layer_1" xmlns="http://www.w3.org/2000/svg" xmlns:xlink="http://www.w3.org/1999/xlink" x="0px" y="0px"
	 viewBox="0 0 441.3 88" style="enable-background:new 0 0 441.3 88;" xml:space="preserve">
<style type="text/css">
	.st0{fill:#F094D0;}
	.st1{fill:none;stroke:#000000;stroke-linecap:round;stroke-miterlimit:10;}
</style>
<title>logo_tubes</title>
<g>
	<path class="st0" d="M407,65.9h0.2c5.2-2.3,10.9-3.2,16.5-2.7c11.8,1,18,9,16.2,15.2c-3.3,11.8-17.6,4.6-27.6,6
		c-6.7,0.9-15.5,3.6-21.2,0.3c-4-2.4-5.5-6.7-6.2-10l0,0c6.3-7.9,8.6-19,8.3-31.7s-3.5-26.6-12.7-34.6l0.2-0.2
		c4.1-3.6,12-7,19.9-4.2c7.2,2.5,10.4,11.8,7,23.3c-2.1,7-2.8,14.4-1.9,21.8C406.3,53.4,408,59.9,407,65.9z"/>
	<path class="st0" d="M376,35.1l-0.4,0.1c-6.2,3-15.5,4.2-22.2-0.1h-0.1c-1,13.9-10.1,23.9-0.9,32c7,6.1,19.6,1.9,23.2-11.6
		C376.8,50.6,377.3,42.3,376,35.1z M329.4,55.8h0.6c-0.2-11,9.5-22.6,2.1-33.3c-5.5-7.8-17.8-6.1-22.4,7.1
		c-2.9,8.3-3.9,17.3-0.6,25.3l0.4-0.2c4.5-1.3,11.8-2.3,18.2,0.2C328.3,55.3,328.9,55.5,329.4,55.8z M345,10.4l0.3-0.2
		C354.5-0.7,368.8,2,374,4.3c2.4,1.1,4.6,2.5,6.5,4.2c9.1,8,12.3,21.9,12.7,34.6s-2,23.9-8.3,31.7c-2.4,3-5.3,5.4-8.6,7.2
		c-13.5,7.5-30.4,4.2-37.8-4.1l-0.4-0.2c-0.3,0.6-0.6,1.3-1,1.9c-5,8.4-21.5,10.9-34.5-0.9c-1.3-1.2-2.6-2.6-3.8-4
		c-2.3-2.8-4.2-5.9-5.7-9.2c-5.4-11.7-6.3-25.1-2.5-37.5l0.3-0.3c4.9,4.8,13,4.2,15-2.6c1.4-4.7-0.2-10.6-4.8-15.3l0.4-0.4
		c3.3-3.4,8.6-6,15.5-7C324.5,1.5,337,2.1,345,10.4z"/>
	<path class="st0" d="M301.2,9.8c4.6,4.8,6.1,10.6,4.8,15.3c-2,6.9-10.1,7.4-15,2.6c-0.9-0.9-1.7-2-2.3-3.1
		c-4.2-8.4-12.9-7.8-15.4-1.8c-2.2,5.3,0.8,12.4-2.1,18.9c-2.6,5.9-10.2,13.1-4.1,22.7c5.7,9,19.4,7.3,25.8,1.2l0.3-0.2
		c1.5,3.3,3.4,6.4,5.7,9.2c1.2,1.4,2.4,2.8,3.8,4l-0.2,0.2c-4.7,4.3-12.7,8.1-24.2,7.5c-8-0.4-22.5-4.5-28.5-16.2
		c-8.4-16.5,2.8-27.8,5-35.3s-3.1-17.5,7.4-27.4c8.7-8.2,20.6-7.8,30.5-3.5C295.8,5.4,298.7,7.3,301.2,9.8z"/>
	<path class="st0" d="M186.6,6.3L186.6,6.3c2.3-3.2,6.3-4.6,10.1-3.4c9.3,2.5,15.8,17.7,17.4,28.7l0,0c3.2-8.3-0.4-15.3,1.9-22.5
		c2.5-8,12.2-10.3,18.5-3.5s8.1,26.2-1.2,40.8c-7.7,12.2-18,13.7-24.7,20.5c-7,7.2-8.6,15.9-18,19.2c-8.2,2.8-12.5-2.5-24-2
		c-7.6,0.3-18.4,5-28.1-0.9l-0.1-0.1c0.9-1,1.7-2.2,2.2-3.5c2.8-6.4-0.6-13.5-6.3-18.6l0.1-0.1c3-4.4,8.5-7.9,11-12.6
		c2.9-5.4,5.2-11.9,6.9-15.4c1.3-2.9,3.3-5.5,5.8-7.4v-0.1c-7.1-0.3-12.9-2.6-18.1-4.4l0,0c1.4-3.4,1.3-7.2-0.3-10.6
		c-1.5-3.6-3.7-5.5-6.3-6.4V3.9c7.8-3,17.5,3,24.6,2.6C166.8,6,178.8-4.2,186.6,6.3z M184,67c2.3-7,9.8-14.4,16.5-17.5l0.1-0.1
		c-1.2-1.2-2.1-2.7-2.8-4.2c-2.8-7-0.7-16.7-9.2-25.3c-0.2-0.2-0.4-0.4-0.6-0.7l0,0c-1.2,4-3.3,7.7-6.1,10.8
		c-4.1,4.7-8.5,8.6-10.9,11.9c-4.9,6.8-6.5,17-11.6,23.3l0,0C167.7,63.7,177,63.4,184,67z"/>
	<path class="st0" d="M118.3,53.6L118.3,53.6c3.8,0.6,7.4,1.8,10.7,3.5c2,1.1,3.8,2.4,5.4,3.8c5.7,5.1,9.1,12.2,6.3,18.6
		c-0.5,1.3-1.3,2.4-2.2,3.4c-6.5,7-18.9,0.4-29,1.7c-5.3,0.6-17.5,6.2-24.1-3.4L85.3,81c-5.3-7.9,1.5-18.4,8.2-25.4l0.4-0.4
		c6-6.5,9.8-16.7,12.6-23.5c0.4-1,0.9-2,1.4-3l0,0c-7.3,1.2-14.8-0.5-20.8-4.8h-0.1c2.4-6.3,3.1-13.2-2.6-18h0.1
		c6-5.2,18.6-1.9,26.3-1.7c8.7,0.2,16.8-2.4,22.5-0.2c2.6,1,4.7,2.9,6.3,6.4c1.6,3.3,1.7,7.1,0.3,10.5l0,0
		c-3.1,8.1-13.4,14.1-17.1,20.8C121.2,44.6,119.9,49,118.3,53.6z"/>
	<path class="st0" d="M63.6,23.9c-4.2,0.8-8.6,0.8-12.8,0L50.6,24c2.4,3.5,3.5,7.9,2.9,12.1c-1,5.3-3.6,9.9-12.1,12.6
		c-4.3,1.4-11.5,1.4-18.1-1.2l0,0c-2.7,9.2,5.8,20.9,7.3,25.5c2.4,7.5-1.7,15.4-12.3,13.4C10.4,85,0.9,74.4,1.5,55.7
		c0.4-11.9,4.2-18.6,6.8-22.5l0.2-0.3c-0.7-0.5-1.4-1-2-1.5C-2,24-1.3,6.3,13.4,2.8c8.9-2.1,23.6,3,34.8,3.4
		c10.5,0.4,25.9-8.5,35.8-0.6c0.2,0.1,0.3,0.2,0.4,0.4c5.7,4.9,4.9,11.7,2.6,18c-1.1,2.9-2.5,5.8-4,8.5c-4.2,7.9-5.6,11.3-3.4,21
		c0.6,2.4,0.9,5,0.9,7.5h0.6c3.8-2.7,8-4.7,12.5-5.9l0.2,0.2l-0.4,0.4c-6.7,7-13.5,17.5-8.2,25.4l0.1,0.2L85,81.4
		c-7.1,7-18.1,6.7-23.8,2.4C51,76.2,59.5,62.6,58.9,45c-0.4-11.3,2.1-17,4.7-20.9L63.6,23.9z"/>
</g>
<g>
	<path class="st1" d="M19.5,45.6c1.3,0.8,2.6,1.4,4,2c6.5,2.6,13.7,2.6,18.1,1.2c8.4-2.8,11-7.4,12-12.7c0.6-4.3-0.5-8.6-2.9-12.2
		c-1.5-2.1-3.6-3.6-6-4.4c-9.5-3-22.4,2.5-28.2-1"/>
	<path class="st1" d="M8.3,33.2c-2.6,3.9-6.4,10.6-6.8,22.5C0.9,74.4,10.4,85,18.4,86.5c10.6,2,14.8-5.9,12.3-13.4
		c-1.5-4.6-10-16.4-7.3-25.5"/>
	<path class="st1" d="M40.7,32c-11.5,7.3-24,6.5-32.2,0.9c-0.7-0.5-1.4-1-2-1.5C-2,24-1.3,6.2,13.4,2.8c8.9-2.1,23.6,3,34.8,3.4
		c10.5,0.4,25.9-8.5,35.8-0.6c0.2,0.1,0.3,0.2,0.4,0.4c5.7,4.9,4.9,11.7,2.6,18c-1.1,2.9-2.5,5.8-4,8.5c-4.2,7.9-5.6,11.3-3.4,21
		c0.6,2.4,0.9,5,0.9,7.5c0,6-2.3,10-5.2,14.1"/>
	<path class="st1" d="M50.8,23.9c4.2,0.8,8.6,0.8,12.8,0c4.6-0.7,9.1-2.4,13-5"/>
	<path class="st1" d="M63.6,24.1C61,28,58.5,33.7,58.9,45c0.6,17.6-7.8,31.2,2.3,38.8c5.7,4.3,16.7,4.6,23.8-2.4"/>
	<path class="st1" d="M114.3,19.9c2.3-2.4,5-4.4,7.9-5.9"/>
	<path class="st1" d="M118.4,53.6c3.7,0.6,7.3,1.8,10.6,3.5c2,1.1,3.8,2.4,5.4,3.8c5.7,5.1,9.1,12.2,6.3,18.6
		c-0.5,1.3-1.3,2.4-2.2,3.4c-6.5,7-18.9,0.4-29,1.7c-5.3,0.6-17.5,6.2-24.1-3.4L85.3,81c-5.3-7.9,1.5-18.4,8.2-25.4l0.4-0.4
		c6-6.5,9.8-16.7,12.6-23.5c0.4-1,0.9-2,1.4-3c1.7-3.2,3.9-6.2,6.4-8.8"/>
	<path class="st1" d="M81.2,61c3.8-2.7,8-4.7,12.5-5.9"/>
	<path class="st1" d="M87.2,24c6,4.3,13.4,6,20.7,4.7"/>
	<path class="st1" d="M100.2,72.5c10.4-0.8,14.9-10.2,18.1-19c1.7-4.5,3-8.9,4.6-11.8c3.7-6.7,14-12.7,17.1-20.8l0,0
		c1.4-3.4,1.3-7.2-0.3-10.6c-1.5-3.5-3.7-5.5-6.2-6.4c-5.8-2.2-13.8,0.4-22.6,0.2c-7.8-0.2-20.4-3.5-26.3,1.7"/>
	<path class="st1" d="M140.1,21c5.2,1.8,11,4.1,18.1,4.4c1.2,0,2.4,0,3.6,0c6.4-0.4,12.1-4,15.3-9.5"/>
	<path class="st1" d="M93.4,17.5c7.4,4.4,13.6,3.8,20.5,2.7"/>
	<path class="st1" d="M132.7,72c-6.1-6.9-14.5-7.6-20-6.8"/>
	<path class="st1" d="M133.5,3.9c7.8-3,17.5,3,24.6,2.6c8.7-0.5,20.7-10.7,28.5-0.2c0.1,0.2,0.2,0.3,0.4,0.5
		c2.1,3.1,2.5,7.6,1.1,12.3c-1.2,4-3.3,7.7-6.1,10.8c-4.1,4.7-8.5,8.6-10.9,11.9c-4.9,6.8-6.5,17-11.6,23.3
		c-2.1,2.7-5.1,4.6-8.6,5.2"/>
	<path class="st1" d="M158.1,25.5c-2.5,2-4.5,4.5-5.8,7.4c-1.7,3.5-4,10-6.9,15.4c-2.5,4.7-7.9,8.2-11,12.6"/>
	<path class="st1" d="M138.6,83.1c9.8,5.9,20.5,1.3,28.1,0.9c11.5-0.5,15.8,4.8,24,2c9.4-3.2,11-12,18-19.2
		c6.7-6.8,17-8.3,24.7-20.5c9.2-14.7,7.6-33.9,1.2-40.8S218.6,1,216.1,9c-2.3,7.2,1.3,14.2-1.9,22.5c-1.1,2.7-2.7,5.2-4.6,7.4"/>
	<path class="st1" d="M159.6,65.2c8.1-1.5,17.4-1.8,24.4,1.8c2.2,1.1,4.1,2.7,5.7,4.5"/>
	<path class="st1" d="M184,67.1L184,67.1c2.3-7,9.8-14.4,16.5-17.5"/>
	<path class="st1" d="M186.6,6.3c2.3-3.2,6.3-4.6,10.1-3.4c9.3,2.5,15.8,17.7,17.4,28.7"/>
	<path class="st1" d="M202,50.7c-0.5-0.4-0.9-0.8-1.4-1.2c-1.2-1.2-2.1-2.7-2.8-4.2c-2.8-7-0.7-16.7-9.2-25.3
		c-0.2-0.2-0.4-0.4-0.6-0.7"/>
	<path class="st1" d="M231.1,13.7c4.3,13.5-1,32.7-14.8,38.8c-4.7,1.9-10.1,1.1-14.2-1.9"/>
	<path class="st1" d="M292.9,65.7c-6.4,6.2-20,7.8-25.8-1.2c-6.1-9.6,1.5-16.9,4.1-22.7c2.9-6.5-0.1-13.6,2.1-18.9
		c2.5-6,11.1-6.6,15.4,1.8c0.6,1.2,1.4,2.2,2.3,3.1c4.9,4.8,13,4.3,15-2.6c1.4-4.7-0.2-10.6-4.8-15.3c-2.5-2.5-5.4-4.5-8.6-5.8
		c-9.9-4.3-21.8-4.7-30.5,3.5c-10.5,9.9-5.1,19.9-7.4,27.4s-13.4,18.7-5,35.2c6,11.8,20.5,15.8,28.5,16.2
		c11.6,0.6,19.5-3.2,24.2-7.5"/>
	<path class="st1" d="M309.5,54.9c4.5-1.3,11.8-2.3,18.2,0.2c0.6,0.2,1.1,0.5,1.7,0.8c7.1,3.6,13.2,12.1,8.7,21.9
		c-0.3,0.6-0.6,1.3-1,1.9c-5,8.4-21.5,10.9-34.5-0.9c-1.3-1.2-2.6-2.6-3.8-4c-2.3-2.8-4.2-5.9-5.7-9.2c-5.4-11.7-6.3-25.1-2.5-37.5"
		/>
	<path class="st1" d="M301.5,9.4c3.3-3.4,8.6-6,15.5-7c7.4-1,19.9-0.4,27.9,7.9c1.4,1.5,2.7,3.2,3.7,5c2.5,4.2,4,8.9,4.4,13.7
		c0.2,2,0.3,3.9,0.1,5.9c-1,13.9-10.1,23.9-0.9,32c7,6.1,19.6,1.9,23.2-11.6c1.3-4.8,1.7-13.1,0.4-20.3c-0.9-4.9-2.6-9.2-5.3-11.9
		c-5.2-4.9-10.4-1.1-14.9-3.6"/>
	<path class="st1" d="M327.5,72.4c-10-4.5-15.7-10.6-18.4-17.4c-3.2-8-2.3-17,0.6-25.4c4.6-13.2,16.9-14.9,22.4-7.1
		c7.4,10.6-2.3,22.3-2.1,33.3"/>
	<path class="st1" d="M338.5,77.8c7.4,8.3,24.2,11.6,37.8,4.1c3.3-1.8,6.2-4.3,8.6-7.2c6.3-7.9,8.6-19,8.3-31.7s-3.5-26.6-12.7-34.6
		c-1.9-1.7-4.1-3.1-6.5-4.2c-5.1-2.3-19.5-5-28.7,5.8"/>
	<path class="st1" d="M353.4,35c6.7,4.3,16,3.1,22.2,0.1"/>
	<path class="st1" d="M327.1,62.1c0,0-5.5-0.3-8.9,4"/>
	<path class="st1" d="M364.3,20.9c1.4,2.8,2,6.5-0.1,11.3"/>
	<path class="st1" d="M380.6,8.3c4.1-3.6,12-7,19.9-4.2c7.2,2.5,10.4,11.8,7,23.3c-2.1,7-2.8,14.4-1.9,21.8
		c0.6,4.3,2.3,10.7,1.3,16.8c-0.5,3.3-2,6.4-4.4,8.8"/>
	<path class="st1" d="M384.9,74.8c0.7,3.3,2.2,7.6,6.2,10c5.7,3.4,14.6,0.7,21.2-0.3c10-1.4,24.3,5.8,27.6-6
		c1.8-6.2-4.4-14.2-16.2-15.2c-5.6-0.5-11.3,0.4-16.5,2.7"/>
	<path class="st1" d="M397.1,14.9c-1,3.9-3.3,7.3-6.5,9.7"/>
</g>
</svg>
